<svg xmlns="http://www.w3.org/2000/svg" fill="none" viewBox="0 0 15 15" id="Number-Zero--Streamline-Ultimate.svg" height="15" width="15"><desc>Number Zero Streamline Icon: https://streamlinehq.com</desc><path fill="#000000" fill-rule="evenodd" d="M7.408875 1.5625C5.9921875 1.5625 4.84375 2.7109375 4.84375 4.1276062499999995V10.872375000000002c0 1.4166875 1.1484375 2.5651249999999997 2.5651249999999997 2.5651249999999997h0.18225000000000002c1.4166875 0 2.5651249999999997 -1.1484375 2.5651249999999997 -2.5651249999999997V4.1276062499999995C10.15625 2.7109375 9.0078125 1.5625 7.591125 1.5625h-0.18225000000000002ZM3.59375 4.1276062499999995C3.59375 2.02058125 5.301831249999999 0.3125 7.408875 0.3125h0.18225000000000002C9.6981875 0.3125 11.40625 2.02058125 11.40625 4.1276062499999995V10.872375000000002c0 2.1070625 -1.7080625 3.8151249999999997 -3.8151249999999997 3.8151249999999997h-0.18225000000000002c-2.10704375 0 -3.8151249999999997 -1.7080625 -3.8151249999999997 -3.8151249999999997V4.1276062499999995Z" clip-rule="evenodd" stroke-width="1"></path></svg>