<svg xmlns="http://www.w3.org/2000/svg" viewBox="0 0 15 15" id="Add-Circle-Alternate--Streamline-Ultimate.svg" height="15" width="15"><desc>Add Circle Alternate Streamline Icon: https://streamlinehq.com</desc><g><path d="M7.5 15A7.5 7.5 0 1 0 0 7.5a7.5 7.5 0 0 0 7.5 7.5Zm0 -13.4375A5.9375 5.9375 0 1 1 1.5625 7.5 5.94375 5.94375 0 0 1 7.5 1.5625Z" fill="#fff" stroke-width="1"></path><path d="M3.9187499999999997 8.28125h2.6437500000000003a0.15625 0.15625 0 0 1 0.15625 0.15625v2.6437500000000003a0.78125 0.78125 0 0 0 1.5625 0V8.4375a0.15625 0.15625 0 0 1 0.15625 -0.15625h2.6437500000000003a0.78125 0.78125 0 0 0 0 -1.5625H8.4375a0.15625 0.15625 0 0 1 -0.15625 -0.15625V3.9187499999999997a0.78125 0.78125 0 0 0 -1.5625 0v2.6437500000000003a0.15625 0.15625 0 0 1 -0.15625 0.15625H3.9187499999999997a0.78125 0.78125 0 0 0 0 1.5625Z" fill="#fff" stroke-width="1"></path></g></svg>