<svg xmlns="http://www.w3.org/2000/svg" viewBox="0 0 14 20" id="Remove--Streamline-Ultimate.svg" height="10" width="10"><desc>Remove Streamline Icon: https://streamlinehq.com</desc><path d="M0.275 13.4a0.93125 0.93125 0 0 0 0 1.3250000000000002 0.9375 0.9375 0 0 0 1.3250000000000002 0l5.7875 -5.7875a0.15625 0.15625 0 0 1 0.22499999999999998 0l5.7875 5.7875a0.9375 0.9375 0 0 0 1.3250000000000002 0 0.93125 0.93125 0 0 0 0 -1.3250000000000002l-5.7875 -5.7875a0.15625 0.15625 0 0 1 0 -0.22499999999999998l5.7875 -5.7875A0.9375 0.9375 0 0 0 13.4 0.275L7.6125 6.0625a0.15625 0.15625 0 0 1 -0.22499999999999998 0L1.6 0.275A0.9375 0.9375 0 0 0 0.275 1.6l5.7875 5.7875a0.15625 0.15625 0 0 1 0 0.22499999999999998Z" fill="#fff" stroke-width="1"></path></svg>